<mxfile host="Electron" agent="Mozilla/5.0 (Windows NT 10.0; Win64; x64) AppleWebKit/537.36 (KHTML, like Gecko) draw.io/24.7.17 Chrome/128.0.6613.36 Electron/32.0.1 Safari/537.36" version="24.7.17">
  <diagram name="Страница — 1" id="XL5MZjMssIo177SF16M5">
    <mxGraphModel dx="1221" dy="717" grid="1" gridSize="10" guides="1" tooltips="1" connect="1" arrows="1" fold="1" page="1" pageScale="1" pageWidth="1169" pageHeight="1654" math="0" shadow="0">
      <root>
        <mxCell id="0" />
        <mxCell id="1" parent="0" />
        <mxCell id="F342HoyCxBnfbBB8pNCY-25" value="" style="group" vertex="1" connectable="0" parent="1">
          <mxGeometry x="10" y="20" width="175" height="430" as="geometry" />
        </mxCell>
        <mxCell id="F342HoyCxBnfbBB8pNCY-3" style="edgeStyle=orthogonalEdgeStyle;rounded=0;orthogonalLoop=1;jettySize=auto;html=1;" edge="1" parent="F342HoyCxBnfbBB8pNCY-25" target="F342HoyCxBnfbBB8pNCY-2">
          <mxGeometry relative="1" as="geometry">
            <mxPoint x="75" y="50" as="sourcePoint" />
          </mxGeometry>
        </mxCell>
        <mxCell id="F342HoyCxBnfbBB8pNCY-7" style="edgeStyle=orthogonalEdgeStyle;rounded=0;orthogonalLoop=1;jettySize=auto;html=1;entryX=0.5;entryY=0;entryDx=0;entryDy=0;" edge="1" parent="F342HoyCxBnfbBB8pNCY-25" source="F342HoyCxBnfbBB8pNCY-2" target="F342HoyCxBnfbBB8pNCY-4">
          <mxGeometry relative="1" as="geometry" />
        </mxCell>
        <mxCell id="F342HoyCxBnfbBB8pNCY-14" value="true" style="edgeLabel;html=1;align=center;verticalAlign=middle;resizable=0;points=[];" vertex="1" connectable="0" parent="F342HoyCxBnfbBB8pNCY-7">
          <mxGeometry x="0.24" relative="1" as="geometry">
            <mxPoint as="offset" />
          </mxGeometry>
        </mxCell>
        <mxCell id="F342HoyCxBnfbBB8pNCY-19" style="edgeStyle=orthogonalEdgeStyle;rounded=0;orthogonalLoop=1;jettySize=auto;html=1;entryX=1;entryY=0.5;entryDx=0;entryDy=0;" edge="1" parent="F342HoyCxBnfbBB8pNCY-25" source="F342HoyCxBnfbBB8pNCY-2" target="F342HoyCxBnfbBB8pNCY-18">
          <mxGeometry relative="1" as="geometry">
            <Array as="points">
              <mxPoint x="175" y="110" />
              <mxPoint x="175" y="405" />
            </Array>
          </mxGeometry>
        </mxCell>
        <mxCell id="F342HoyCxBnfbBB8pNCY-21" value="false" style="edgeLabel;html=1;align=center;verticalAlign=middle;resizable=0;points=[];" vertex="1" connectable="0" parent="F342HoyCxBnfbBB8pNCY-19">
          <mxGeometry x="-0.8765" y="2" relative="1" as="geometry">
            <mxPoint as="offset" />
          </mxGeometry>
        </mxCell>
        <mxCell id="F342HoyCxBnfbBB8pNCY-2" value="y !=0" style="rhombus;whiteSpace=wrap;html=1;" vertex="1" parent="F342HoyCxBnfbBB8pNCY-25">
          <mxGeometry x="25" y="80" width="100" height="60" as="geometry" />
        </mxCell>
        <mxCell id="F342HoyCxBnfbBB8pNCY-11" style="edgeStyle=orthogonalEdgeStyle;rounded=0;orthogonalLoop=1;jettySize=auto;html=1;" edge="1" parent="F342HoyCxBnfbBB8pNCY-25" source="F342HoyCxBnfbBB8pNCY-4" target="F342HoyCxBnfbBB8pNCY-9">
          <mxGeometry relative="1" as="geometry" />
        </mxCell>
        <mxCell id="F342HoyCxBnfbBB8pNCY-4" value="remainder = x%y" style="rounded=0;whiteSpace=wrap;html=1;" vertex="1" parent="F342HoyCxBnfbBB8pNCY-25">
          <mxGeometry x="20" y="170" width="110" height="40" as="geometry" />
        </mxCell>
        <mxCell id="F342HoyCxBnfbBB8pNCY-13" style="edgeStyle=orthogonalEdgeStyle;rounded=0;orthogonalLoop=1;jettySize=auto;html=1;entryX=0;entryY=0.5;entryDx=0;entryDy=0;" edge="1" parent="F342HoyCxBnfbBB8pNCY-25" source="F342HoyCxBnfbBB8pNCY-8" target="F342HoyCxBnfbBB8pNCY-2">
          <mxGeometry relative="1" as="geometry">
            <Array as="points">
              <mxPoint y="320" />
              <mxPoint y="110" />
            </Array>
          </mxGeometry>
        </mxCell>
        <mxCell id="F342HoyCxBnfbBB8pNCY-8" value="y=remainder" style="rounded=0;whiteSpace=wrap;html=1;" vertex="1" parent="F342HoyCxBnfbBB8pNCY-25">
          <mxGeometry x="20" y="310" width="110" height="40" as="geometry" />
        </mxCell>
        <mxCell id="F342HoyCxBnfbBB8pNCY-12" style="edgeStyle=orthogonalEdgeStyle;rounded=0;orthogonalLoop=1;jettySize=auto;html=1;entryX=0.5;entryY=0;entryDx=0;entryDy=0;" edge="1" parent="F342HoyCxBnfbBB8pNCY-25" source="F342HoyCxBnfbBB8pNCY-9" target="F342HoyCxBnfbBB8pNCY-8">
          <mxGeometry relative="1" as="geometry" />
        </mxCell>
        <mxCell id="F342HoyCxBnfbBB8pNCY-9" value="x=y" style="rounded=0;whiteSpace=wrap;html=1;" vertex="1" parent="F342HoyCxBnfbBB8pNCY-25">
          <mxGeometry x="20" y="240" width="110" height="40" as="geometry" />
        </mxCell>
        <mxCell id="F342HoyCxBnfbBB8pNCY-17" value="findGCD(x,y)" style="ellipse;whiteSpace=wrap;html=1;" vertex="1" parent="F342HoyCxBnfbBB8pNCY-25">
          <mxGeometry x="35" width="80" height="50" as="geometry" />
        </mxCell>
        <mxCell id="F342HoyCxBnfbBB8pNCY-18" value="return x" style="ellipse;whiteSpace=wrap;html=1;" vertex="1" parent="F342HoyCxBnfbBB8pNCY-25">
          <mxGeometry x="35" y="380" width="80" height="50" as="geometry" />
        </mxCell>
        <mxCell id="F342HoyCxBnfbBB8pNCY-28" value="" style="group" vertex="1" connectable="0" parent="1">
          <mxGeometry x="42.5" y="490" width="110" height="180" as="geometry" />
        </mxCell>
        <mxCell id="F342HoyCxBnfbBB8pNCY-27" style="edgeStyle=orthogonalEdgeStyle;rounded=0;orthogonalLoop=1;jettySize=auto;html=1;" edge="1" parent="F342HoyCxBnfbBB8pNCY-28" source="F342HoyCxBnfbBB8pNCY-24" target="F342HoyCxBnfbBB8pNCY-26">
          <mxGeometry relative="1" as="geometry" />
        </mxCell>
        <mxCell id="F342HoyCxBnfbBB8pNCY-24" value="findLCM(x,y)" style="ellipse;whiteSpace=wrap;html=1;" vertex="1" parent="F342HoyCxBnfbBB8pNCY-28">
          <mxGeometry width="110" height="70" as="geometry" />
        </mxCell>
        <mxCell id="F342HoyCxBnfbBB8pNCY-26" value="return (x*y)/findGCD(x,y)" style="ellipse;whiteSpace=wrap;html=1;" vertex="1" parent="F342HoyCxBnfbBB8pNCY-28">
          <mxGeometry y="110" width="110" height="70" as="geometry" />
        </mxCell>
        <mxCell id="F342HoyCxBnfbBB8pNCY-32" style="edgeStyle=orthogonalEdgeStyle;rounded=0;orthogonalLoop=1;jettySize=auto;html=1;entryX=0.5;entryY=0;entryDx=0;entryDy=0;" edge="1" parent="1" source="F342HoyCxBnfbBB8pNCY-29" target="F342HoyCxBnfbBB8pNCY-30">
          <mxGeometry relative="1" as="geometry" />
        </mxCell>
        <mxCell id="F342HoyCxBnfbBB8pNCY-29" value="LCM_w_parametrs&lt;div&gt;(int numCount, ...)&lt;/div&gt;" style="ellipse;whiteSpace=wrap;html=1;" vertex="1" parent="1">
          <mxGeometry x="300" y="30" width="160" height="80" as="geometry" />
        </mxCell>
        <mxCell id="F342HoyCxBnfbBB8pNCY-34" style="edgeStyle=orthogonalEdgeStyle;rounded=0;orthogonalLoop=1;jettySize=auto;html=1;entryX=0.5;entryY=0;entryDx=0;entryDy=0;" edge="1" parent="1" source="F342HoyCxBnfbBB8pNCY-30" target="F342HoyCxBnfbBB8pNCY-33">
          <mxGeometry relative="1" as="geometry" />
        </mxCell>
        <mxCell id="F342HoyCxBnfbBB8pNCY-30" value="va_list(numbers);&lt;div&gt;va_start(number,numCount);&lt;/div&gt;&lt;div&gt;current LCM = va_arg(numbers,int);&lt;/div&gt;" style="rounded=0;whiteSpace=wrap;html=1;" vertex="1" parent="1">
          <mxGeometry x="280" y="140" width="200" height="60" as="geometry" />
        </mxCell>
        <mxCell id="F342HoyCxBnfbBB8pNCY-36" style="edgeStyle=orthogonalEdgeStyle;rounded=0;orthogonalLoop=1;jettySize=auto;html=1;" edge="1" parent="1" source="F342HoyCxBnfbBB8pNCY-33" target="F342HoyCxBnfbBB8pNCY-35">
          <mxGeometry relative="1" as="geometry" />
        </mxCell>
        <mxCell id="F342HoyCxBnfbBB8pNCY-39" value="true" style="edgeLabel;html=1;align=center;verticalAlign=middle;resizable=0;points=[];" vertex="1" connectable="0" parent="F342HoyCxBnfbBB8pNCY-36">
          <mxGeometry x="-0.6133" relative="1" as="geometry">
            <mxPoint as="offset" />
          </mxGeometry>
        </mxCell>
        <mxCell id="F342HoyCxBnfbBB8pNCY-42" style="edgeStyle=orthogonalEdgeStyle;rounded=0;orthogonalLoop=1;jettySize=auto;html=1;entryX=1;entryY=0.5;entryDx=0;entryDy=0;" edge="1" parent="1" source="F342HoyCxBnfbBB8pNCY-33" target="F342HoyCxBnfbBB8pNCY-40">
          <mxGeometry relative="1" as="geometry">
            <Array as="points">
              <mxPoint x="510" y="275" />
              <mxPoint x="510" y="530" />
            </Array>
          </mxGeometry>
        </mxCell>
        <mxCell id="F342HoyCxBnfbBB8pNCY-43" value="false" style="edgeLabel;html=1;align=center;verticalAlign=middle;resizable=0;points=[];" vertex="1" connectable="0" parent="F342HoyCxBnfbBB8pNCY-42">
          <mxGeometry x="-0.8703" y="2" relative="1" as="geometry">
            <mxPoint as="offset" />
          </mxGeometry>
        </mxCell>
        <mxCell id="F342HoyCxBnfbBB8pNCY-33" value="i=1; i&amp;lt;numCount: i++" style="rhombus;whiteSpace=wrap;html=1;" vertex="1" parent="1">
          <mxGeometry x="290" y="240" width="180" height="70" as="geometry" />
        </mxCell>
        <mxCell id="F342HoyCxBnfbBB8pNCY-38" style="edgeStyle=orthogonalEdgeStyle;rounded=0;orthogonalLoop=1;jettySize=auto;html=1;entryX=0.5;entryY=0;entryDx=0;entryDy=0;" edge="1" parent="1" source="F342HoyCxBnfbBB8pNCY-35" target="F342HoyCxBnfbBB8pNCY-37">
          <mxGeometry relative="1" as="geometry" />
        </mxCell>
        <mxCell id="F342HoyCxBnfbBB8pNCY-35" value="nextNum = va_arg(numbers,int)" style="rounded=0;whiteSpace=wrap;html=1;" vertex="1" parent="1">
          <mxGeometry x="280" y="340" width="200" height="40" as="geometry" />
        </mxCell>
        <mxCell id="F342HoyCxBnfbBB8pNCY-37" value="currentLCM=findLCM&lt;div&gt;(currentLCM, nextNum)&lt;/div&gt;" style="shape=process;whiteSpace=wrap;html=1;backgroundOutline=1;" vertex="1" parent="1">
          <mxGeometry x="285" y="410" width="190" height="60" as="geometry" />
        </mxCell>
        <mxCell id="F342HoyCxBnfbBB8pNCY-47" style="edgeStyle=orthogonalEdgeStyle;rounded=0;orthogonalLoop=1;jettySize=auto;html=1;entryX=0.5;entryY=0;entryDx=0;entryDy=0;" edge="1" parent="1" source="F342HoyCxBnfbBB8pNCY-40" target="F342HoyCxBnfbBB8pNCY-45">
          <mxGeometry relative="1" as="geometry" />
        </mxCell>
        <mxCell id="F342HoyCxBnfbBB8pNCY-40" value="va_end(numbers)" style="rounded=0;whiteSpace=wrap;html=1;" vertex="1" parent="1">
          <mxGeometry x="320" y="500" width="120" height="60" as="geometry" />
        </mxCell>
        <mxCell id="F342HoyCxBnfbBB8pNCY-45" value="return CurrentLCM" style="ellipse;whiteSpace=wrap;html=1;" vertex="1" parent="1">
          <mxGeometry x="300" y="590" width="160" height="80" as="geometry" />
        </mxCell>
        <mxCell id="F342HoyCxBnfbBB8pNCY-50" style="edgeStyle=orthogonalEdgeStyle;rounded=0;orthogonalLoop=1;jettySize=auto;html=1;entryX=0.5;entryY=0;entryDx=0;entryDy=0;" edge="1" parent="1" source="F342HoyCxBnfbBB8pNCY-48" target="F342HoyCxBnfbBB8pNCY-49">
          <mxGeometry relative="1" as="geometry" />
        </mxCell>
        <mxCell id="F342HoyCxBnfbBB8pNCY-48" value="&lt;font color=&quot;#ff3333&quot;&gt;Start&lt;/font&gt;" style="ellipse;whiteSpace=wrap;html=1;" vertex="1" parent="1">
          <mxGeometry x="800" y="10" width="120" height="80" as="geometry" />
        </mxCell>
        <mxCell id="F342HoyCxBnfbBB8pNCY-52" style="edgeStyle=orthogonalEdgeStyle;rounded=0;orthogonalLoop=1;jettySize=auto;html=1;entryX=0.5;entryY=0;entryDx=0;entryDy=0;" edge="1" parent="1" source="F342HoyCxBnfbBB8pNCY-49" target="F342HoyCxBnfbBB8pNCY-51">
          <mxGeometry relative="1" as="geometry" />
        </mxCell>
        <mxCell id="F342HoyCxBnfbBB8pNCY-49" value="НСК 4, 7, 12" style="shape=parallelogram;perimeter=parallelogramPerimeter;whiteSpace=wrap;html=1;fixedSize=1;" vertex="1" parent="1">
          <mxGeometry x="800" y="120" width="120" height="50" as="geometry" />
        </mxCell>
        <mxCell id="F342HoyCxBnfbBB8pNCY-58" style="edgeStyle=orthogonalEdgeStyle;rounded=0;orthogonalLoop=1;jettySize=auto;html=1;entryX=0.5;entryY=0;entryDx=0;entryDy=0;" edge="1" parent="1" source="F342HoyCxBnfbBB8pNCY-51" target="F342HoyCxBnfbBB8pNCY-53">
          <mxGeometry relative="1" as="geometry" />
        </mxCell>
        <mxCell id="F342HoyCxBnfbBB8pNCY-51" value="LCW_w_parametrs(3,4,7,12)" style="shape=process;whiteSpace=wrap;html=1;backgroundOutline=1;" vertex="1" parent="1">
          <mxGeometry x="721.88" y="207.5" width="276.25" height="55" as="geometry" />
        </mxCell>
        <mxCell id="F342HoyCxBnfbBB8pNCY-59" style="edgeStyle=orthogonalEdgeStyle;rounded=0;orthogonalLoop=1;jettySize=auto;html=1;entryX=0.5;entryY=0;entryDx=0;entryDy=0;" edge="1" parent="1" source="F342HoyCxBnfbBB8pNCY-53" target="F342HoyCxBnfbBB8pNCY-54">
          <mxGeometry relative="1" as="geometry" />
        </mxCell>
        <mxCell id="F342HoyCxBnfbBB8pNCY-53" value="НСК 1,2,3,5,7" style="shape=parallelogram;perimeter=parallelogramPerimeter;whiteSpace=wrap;html=1;fixedSize=1;" vertex="1" parent="1">
          <mxGeometry x="800.01" y="300" width="120" height="50" as="geometry" />
        </mxCell>
        <mxCell id="F342HoyCxBnfbBB8pNCY-62" style="edgeStyle=orthogonalEdgeStyle;rounded=0;orthogonalLoop=1;jettySize=auto;html=1;" edge="1" parent="1" source="F342HoyCxBnfbBB8pNCY-54" target="F342HoyCxBnfbBB8pNCY-55">
          <mxGeometry relative="1" as="geometry" />
        </mxCell>
        <mxCell id="F342HoyCxBnfbBB8pNCY-54" value="LCW_w_parametrs(5,1,2,3,5,7)" style="shape=process;whiteSpace=wrap;html=1;backgroundOutline=1;" vertex="1" parent="1">
          <mxGeometry x="723.75" y="380" width="272.5" height="55" as="geometry" />
        </mxCell>
        <mxCell id="F342HoyCxBnfbBB8pNCY-63" style="edgeStyle=orthogonalEdgeStyle;rounded=0;orthogonalLoop=1;jettySize=auto;html=1;entryX=0.5;entryY=0;entryDx=0;entryDy=0;" edge="1" parent="1" source="F342HoyCxBnfbBB8pNCY-55" target="F342HoyCxBnfbBB8pNCY-56">
          <mxGeometry relative="1" as="geometry" />
        </mxCell>
        <mxCell id="F342HoyCxBnfbBB8pNCY-55" value="НСК 10,15,20,25,30,35" style="shape=parallelogram;perimeter=parallelogramPerimeter;whiteSpace=wrap;html=1;fixedSize=1;" vertex="1" parent="1">
          <mxGeometry x="800" y="470" width="120" height="50" as="geometry" />
        </mxCell>
        <mxCell id="F342HoyCxBnfbBB8pNCY-64" style="edgeStyle=orthogonalEdgeStyle;rounded=0;orthogonalLoop=1;jettySize=auto;html=1;entryX=0.5;entryY=0;entryDx=0;entryDy=0;" edge="1" parent="1" source="F342HoyCxBnfbBB8pNCY-56" target="F342HoyCxBnfbBB8pNCY-57">
          <mxGeometry relative="1" as="geometry" />
        </mxCell>
        <mxCell id="F342HoyCxBnfbBB8pNCY-56" value="LCW_w_parametrs(6,10,15,20,25,30,35)" style="shape=process;whiteSpace=wrap;html=1;backgroundOutline=1;" vertex="1" parent="1">
          <mxGeometry x="723.75" y="552.5" width="272.5" height="55" as="geometry" />
        </mxCell>
        <mxCell id="F342HoyCxBnfbBB8pNCY-57" value="&lt;font color=&quot;#ff3333&quot;&gt;End&lt;/font&gt;" style="ellipse;whiteSpace=wrap;html=1;" vertex="1" parent="1">
          <mxGeometry x="800" y="640" width="120" height="80" as="geometry" />
        </mxCell>
      </root>
    </mxGraphModel>
  </diagram>
</mxfile>
